<svg xmlns="http://www.w3.org/2000/svg" xmlns:xlink="http://www.w3.org/1999/xlink" width="27" height="27" viewBox="0 0 27 27">
  <defs>
    <clipPath id="clip-path">
      <rect id="Rectangle_20" data-name="Rectangle 20" width="27" height="27" transform="translate(1788.565 44.565)" fill="#e1e1e1"/>
    </clipPath>
  </defs>
  <g id="Mask_Group_4" data-name="Mask Group 4" transform="translate(-1788.565 -44.565)" clip-path="url(#clip-path)">
    <g id="account" transform="translate(1789 45)">
      <path id="Path_22" data-name="Path 22" d="M0,0H26.565V26.565H0Z" fill="none"/>
      <path id="Path_23" data-name="Path 23" d="M12.522,5.77A2.324,2.324,0,1,1,10.2,8.094,2.324,2.324,0,0,1,12.522,5.77m0,9.962c3.287,0,6.752,1.616,6.752,2.324v1.218H5.77V18.056c0-.708,3.465-2.324,6.752-2.324m0-12.065a4.428,4.428,0,1,0,4.428,4.428A4.426,4.426,0,0,0,12.522,3.667Zm0,9.962c-2.955,0-8.855,1.483-8.855,4.428v3.321h17.71V18.056C21.377,15.112,15.477,13.629,12.522,13.629Z" transform="translate(0.761 0.761)" fill="#e1e1e1"/>
    </g>
  </g>
</svg>
