<svg xmlns="http://www.w3.org/2000/svg" xmlns:xlink="http://www.w3.org/1999/xlink" width="233" height="56" viewBox="0 0 233 56">
  <defs>
    <clipPath id="clip-path">
      <rect id="Rectangle_29" data-name="Rectangle 29" width="233" height="56" transform="translate(868 2771)" fill="#fff" stroke="#707070" stroke-width="1"/>
    </clipPath>
  </defs>
  <g id="Mask_Group_5" data-name="Mask Group 5" transform="translate(-868 -2771)" clip-path="url(#clip-path)">
    <g id="Layer_2_1_" transform="translate(893.494 2771)">
      <g id="Ebene_1" transform="translate(0 0)">
        <path id="Path_26" data-name="Path 26" d="M120.761,74.924v-.091a.433.433,0,0,1,.387-.159c.66-.023,1.3-.023,1.957,0a.5.5,0,0,1,.387.159v.091Z" transform="translate(-30.551 -18.898)" fill="#d1effa"/>
        <path id="Path_27" data-name="Path 27" d="M107.926,67.768q-1.365-.034-2.73,0c-1.251-.068-2.5-.114-3.754-.2a65.188,65.188,0,0,1-9.851-1.5,66.722,66.722,0,0,1-29.532-15.38c-.8-.705-1.547-1.433-2.321-2.161a1.675,1.675,0,0,1-.432-.614.838.838,0,0,1,.159-.91.8.8,0,0,1,.91-.2,4.782,4.782,0,0,1,.592.3A88.525,88.525,0,0,0,87.4,58.007a96.391,96.391,0,0,0,9.487,1.706,87.308,87.308,0,0,0,13.787.614,73.073,73.073,0,0,0,7.394-.614,89.4,89.4,0,0,0,16.882-3.845,79.619,79.619,0,0,0,8.464-3.322,1.9,1.9,0,0,1,1.365-.182,1.413,1.413,0,0,1,1.024,1.706,1.58,1.58,0,0,1-.114.3,2.494,2.494,0,0,1-.751.865,50.649,50.649,0,0,1-8.418,5.347,66.679,66.679,0,0,1-17.815,6.029A78.131,78.131,0,0,1,107.926,67.768Z" transform="translate(-14.986 -11.832)" fill="#00a8e1"/>
        <path id="Path_28" data-name="Path 28" d="M74.085,12.421c.569-.341,1.16-.705,1.775-1.024a10.169,10.169,0,0,1,5.165-1.138,4.545,4.545,0,0,1,4.664,4.55c.023.25.023.5.023.774V27.369c0,1.024-.137,1.16-1.16,1.16H81.775a4.384,4.384,0,0,1-.546-.023.627.627,0,0,1-.546-.523,4.16,4.16,0,0,1-.046-.751V16.7a3.848,3.848,0,0,0-.137-1.251A1.7,1.7,0,0,0,78.954,14.2a8.032,8.032,0,0,0-3.913.751.374.374,0,0,0-.273.41V27.323a3.22,3.22,0,0,1-.046.66.545.545,0,0,1-.569.546h0c-.341.023-.683.023-1.047.023H70.7c-.842,0-1.024-.2-1.024-1.047V16.744a5.215,5.215,0,0,0-.114-1.183A1.718,1.718,0,0,0,67.965,14.2a8.009,8.009,0,0,0-3.982.774.363.363,0,0,0-.25.432V27.528c0,.842-.182,1.024-1.024,1.024H59.661c-.8,0-1-.228-1-1V11.761a2.244,2.244,0,0,1,.068-.546.664.664,0,0,1,.637-.432h2.844a.822.822,0,0,1,.8.637c.114.319.182.614.3.956.228,0,.364-.159.523-.25a11.816,11.816,0,0,1,4.05-1.706,8.617,8.617,0,0,1,3.413,0,4.264,4.264,0,0,1,2.639,1.775.99.99,0,0,0,.137.159C74.04,12.376,74.063,12.376,74.085,12.421Z" transform="translate(-14.84 -2.604)" fill="#00a8e1"/>
        <path id="Path_29" data-name="Path 29" d="M139.413,23.922c.137-.455.273-.887.41-1.342,1.047-3.527,2.093-7.03,3.14-10.557l.137-.41a.928.928,0,0,1,.91-.66h3.458c.865,0,1.047.25.751,1.069l-1.365,3.618c-1.524,3.959-3.049,7.94-4.573,11.9-.046.137-.114.273-.159.41a1.108,1.108,0,0,1-1.138.751q-1.5-.034-3,0a1.287,1.287,0,0,1-1.365-.933c-.569-1.5-1.16-3.026-1.729-4.528-1.365-3.572-2.753-7.144-4.118-10.739a4.067,4.067,0,0,1-.3-.887c-.068-.455.091-.683.546-.683,1.3-.023,2.594,0,3.868,0,.546,0,.8.364.933.842.25.865.5,1.752.774,2.616.933,3.162,1.843,6.348,2.776,9.51C139.345,23.922,139.367,23.922,139.413,23.922Z" transform="translate(-33.004 -2.774)" fill="#fff"/>
        <path id="Path_30" data-name="Path 30" d="M32.669,13.4a.678.678,0,0,0,.387-.273,15.722,15.722,0,0,1,1.3-1.16,6.053,6.053,0,0,1,4.141-1.251c.592.023.8.2.842.774.046.774.023,1.57.023,2.343a4.277,4.277,0,0,1-.046.933.651.651,0,0,1-.66.614,6.388,6.388,0,0,1-.933-.023,10.9,10.9,0,0,0-4.437.637c-.319.114-.319.341-.319.592V27.506a5.143,5.143,0,0,1-.023.592.549.549,0,0,1-.546.523,3.686,3.686,0,0,1-.5.023H28.937a3.686,3.686,0,0,1-.5-.023.609.609,0,0,1-.546-.569,4.384,4.384,0,0,1-.023-.546V12.035c0-1.047.114-1.16,1.16-1.16h2.184a.9.9,0,0,1,1.024.774C32.4,12.217,32.532,12.785,32.669,13.4Z" transform="translate(-7.05 -2.718)" fill="#00a8e1"/>
        <path id="Path_31" data-name="Path 31" d="M173,45.2a19.388,19.388,0,0,1,4.437.523,7.368,7.368,0,0,1,1.183.432,1.534,1.534,0,0,1,.933,1.251,9.337,9.337,0,0,1,.068,1.957,25.087,25.087,0,0,1-3.5,10.989,15.176,15.176,0,0,1-2.639,3.253,1.877,1.877,0,0,1-.728.455.532.532,0,0,1-.728-.546,2.475,2.475,0,0,1,.159-.683c.8-2.139,1.57-4.255,2.184-6.461a22.579,22.579,0,0,0,.774-3.686,6.844,6.844,0,0,0,.023-1.365,1.776,1.776,0,0,0-1.274-1.661,8.824,8.824,0,0,0-2.184-.41,35.918,35.918,0,0,0-6.257.273l-2.753.341a.681.681,0,0,1-.728-.273.769.769,0,0,1,.068-.819,2.283,2.283,0,0,1,.683-.637,15.622,15.622,0,0,1,5.574-2.412A27.134,27.134,0,0,1,173,45.2Z" transform="translate(-40.953 -11.446)" fill="#00a8e1"/>
        <path id="Path_32" data-name="Path 32" d="M162.284,19.838v8.191a.651.651,0,0,1-.705.683c-1.229.023-2.434.023-3.663,0a.634.634,0,0,1-.705-.66,2.754,2.754,0,0,1-.023-.432V11.874c.023-.705.2-.91.91-.91h3.276c.705,0,.91.2.91.91v7.963Z" transform="translate(-39.766 -2.785)" fill="#fff"/>
        <path id="Path_33" data-name="Path 33" d="M46.165,19.779V11.7c.023-.546.228-.751.774-.774q1.775-.034,3.549,0c.523,0,.683.159.728.683a5.142,5.142,0,0,1,.023.592V27.355c0,.25-.023.5-.046.751a.566.566,0,0,1-.546.523,2.207,2.207,0,0,1-.387.023H47.1a1.5,1.5,0,0,1-.319-.023.658.658,0,0,1-.614-.592,4.383,4.383,0,0,1-.023-.546C46.165,24.966,46.165,22.372,46.165,19.779Z" transform="translate(-11.673 -2.772)" fill="#00a8e1"/>
        <path id="Path_34" data-name="Path 34" d="M48.679.029a2.842,2.842,0,0,1,1.069.159A2.581,2.581,0,0,1,51.5,3.055a2.541,2.541,0,0,1-2.161,2.321,4.29,4.29,0,0,1-1.524,0,2.547,2.547,0,0,1-2.161-2.844C45.789.916,46.858.029,48.679.029Z" transform="translate(-11.548 -0.017)" fill="#00a8e1"/>
        <path id="Path_35" data-name="Path 35" d="M159.637.027a2.751,2.751,0,0,1,1.342.228,2.393,2.393,0,0,1,1.547,2.116c.182,2.07-1.206,3.117-3.049,3.071a4.229,4.229,0,0,1-.751-.091,2.573,2.573,0,0,1-2-3,2.548,2.548,0,0,1,2.434-2.3A1.686,1.686,0,0,1,159.637.027Z" transform="translate(-39.645 -0.015)" fill="#fff"/>
        <path id="Path_36" data-name="Path 36" d="M17.451,17.741a10.361,10.361,0,0,0-.887-3.413,6.583,6.583,0,0,0-4.55-3.891,8.04,8.04,0,0,0-6.8,1.524,1.822,1.822,0,0,1-.478.341c-.046-.023-.091-.046-.091-.068-.068-.228-.114-.455-.182-.683a.9.9,0,0,0-1.024-.774c-.683,0-1.388.023-2.07,0A1.585,1.585,0,0,0,0,11.234C0,19.2,0,27.183.023,35.123a1.268,1.268,0,0,0,1.274.546c.819-.023,1.638,0,2.457,0,1.433,0,1.433,0,1.433-1.411V27.774c0-.159-.068-.341.091-.478a7.643,7.643,0,0,0,3.959,1.57,6.675,6.675,0,0,0,5.347-1.661,8.418,8.418,0,0,0,2.366-3.8A14.065,14.065,0,0,0,17.451,17.741Zm-5.438,4.71a3.506,3.506,0,0,1-1.047,1.82,3.239,3.239,0,0,1-2.093.8,6.244,6.244,0,0,1-3.322-.728.645.645,0,0,1-.387-.637V19.584c0-1.365.023-2.73,0-4.1a.691.691,0,0,1,.455-.705,6.152,6.152,0,0,1,3.913-.592,2.779,2.779,0,0,1,2.161,1.638,6.357,6.357,0,0,1,.592,2.321A11.369,11.369,0,0,1,12.013,22.45Z" transform="translate(0 -2.599)" fill="#00a8e1"/>
        <path id="Path_37" data-name="Path 37" d="M243.684,25.03Z" transform="translate(-61.648 -6.339)" fill="#232f3e"/>
        <path id="Path_38" data-name="Path 38" d="M237.759,18.225v.091a.327.327,0,0,1-.091-.341v-.182a.022.022,0,0,1,.023-.023h-.023v-.228h.046c0-.023-.023-.023-.023-.046a7.889,7.889,0,0,0-.25-1.274,7.652,7.652,0,0,0-5.8-5.756,11.179,11.179,0,0,0-4.346-.159,7.467,7.467,0,0,0-6.348,5.005,12.171,12.171,0,0,0,.023,8.6,7.253,7.253,0,0,0,5.347,4.778,11.269,11.269,0,0,0,4.277.228,7.816,7.816,0,0,0,7.076-7.326h-.023v-.319c-.023-.137-.046-.25.091-.341v.046a.172.172,0,0,1,.046-.091V18.271C237.781,18.248,237.759,18.248,237.759,18.225Zm-5.46,4.323a4.167,4.167,0,0,1-.637,1.32A2.946,2.946,0,0,1,229.5,25.1a4.14,4.14,0,0,1-1.3-.046,2.924,2.924,0,0,1-2.139-1.706,6.51,6.51,0,0,1-.614-2.252,12.454,12.454,0,0,1,.182-4,5.1,5.1,0,0,1,.614-1.5,2.965,2.965,0,0,1,2.321-1.411,4.14,4.14,0,0,1,1.3.046,2.931,2.931,0,0,1,2.07,1.615,6.716,6.716,0,0,1,.66,2.571,11.072,11.072,0,0,1,.023,1.229A8.316,8.316,0,0,1,232.3,22.548Z" transform="translate(-55.7 -2.583)" fill="#fff"/>
        <path id="Path_39" data-name="Path 39" d="M184.766.244H181.6c-.865,0-1.024.159-1.024,1.024V8.639c0,.159.068.319-.046.478-.2-.023-.319-.159-.478-.25a7.563,7.563,0,0,0-7.349-.478,7.158,7.158,0,0,0-3.549,4.05,12.92,12.92,0,0,0-.8,5.256A10.836,10.836,0,0,0,169.5,22.54a6.544,6.544,0,0,0,3.936,3.481,7.366,7.366,0,0,0,6.917-1.183c.159-.091.25-.25.455-.3a3.241,3.241,0,0,1,.25.8.807.807,0,0,0,.8.614h.546c.819,0,1.615.023,2.412,0,.637,0,.819-.2.842-.865V1.108C185.631.4,185.449.244,184.766.244ZM180.6,16.989V21.13a.6.6,0,0,1-.364.637,5.609,5.609,0,0,1-3.572.683,3.116,3.116,0,0,1-2.434-1.684,6.307,6.307,0,0,1-.637-2.3,11.759,11.759,0,0,1,.273-4.277,5.221,5.221,0,0,1,.455-1.115,2.936,2.936,0,0,1,2.389-1.524,6.869,6.869,0,0,1,3.5.614.627.627,0,0,1,.41.66c-.046,1.411-.023,2.776-.023,4.164Z" transform="translate(-42.591 -0.073)" fill="#fff"/>
        <path id="Path_40" data-name="Path 40" d="M104.167,21.126a15.145,15.145,0,0,0,5.165.068,8.33,8.33,0,0,0,2.844-.91,4.233,4.233,0,0,0,2.093-2.548,5.426,5.426,0,0,0-3.413-6.825,10.181,10.181,0,0,0-4.528-.432A7.761,7.761,0,0,0,99.321,16.3a12.56,12.56,0,0,0-.046,7.1,7.115,7.115,0,0,0,5.824,5.46,14.666,14.666,0,0,0,7.895-.683,1.043,1.043,0,0,0,.774-1.115c-.023-.546,0-1.115,0-1.684,0-.683-.273-.887-.933-.728s-1.3.3-1.957.432a11.273,11.273,0,0,1-4.277.046,3.809,3.809,0,0,1-3.071-4.1A6.132,6.132,0,0,1,104.167,21.126Zm-.569-3.481a6.178,6.178,0,0,1,.432-1.57,3.392,3.392,0,0,1,3.572-2.139,3.714,3.714,0,0,1,1.206.273,1.736,1.736,0,0,1,1.047,1.433,2.61,2.61,0,0,1-.068,1.183,2.031,2.031,0,0,1-1.729,1.32,4.6,4.6,0,0,1-1.479.114,17.779,17.779,0,0,1-2.685-.2C103.553,18.009,103.553,18.009,103.6,17.645Z" transform="translate(-24.991 -2.64)" fill="#00a8e1"/>
        <path id="Path_41" data-name="Path 41" d="M205.507,21.365a9.325,9.325,0,0,0,3.822-.978,4.231,4.231,0,0,0,2.3-3.026,6.183,6.183,0,0,0-.023-2.5,5.274,5.274,0,0,0-3.731-3.982,10.07,10.07,0,0,0-3.39-.432,7.924,7.924,0,0,0-7.918,5.847,12.632,12.632,0,0,0,.091,7.622,6.991,6.991,0,0,0,5.21,4.869,12.344,12.344,0,0,0,3.413.341,14.464,14.464,0,0,0,4.892-.933,1.011,1.011,0,0,0,.819-1.183V25.369c-.023-.66-.3-.887-.956-.728-.5.137-.978.25-1.479.364a11.508,11.508,0,0,1-4.664.159,3.564,3.564,0,0,1-3-2.73,9.321,9.321,0,0,1-.25-1.388.723.723,0,0,1,.319.046A17.951,17.951,0,0,0,205.507,21.365Zm-4.755-3.64a5.644,5.644,0,0,1,.91-2.48,3.416,3.416,0,0,1,3.322-1.3c.114,0,.2.046.319.046a2.033,2.033,0,0,1,1.684,2.753,2,2,0,0,1-1.82,1.411,5.815,5.815,0,0,1-1.411.114A22.092,22.092,0,0,1,201,18.043c-.2-.023-.3-.114-.25-.319Z" transform="translate(-49.59 -2.651)" fill="#fff"/>
      </g>
    </g>
  </g>
</svg>
