<svg xmlns="http://www.w3.org/2000/svg" xmlns:xlink="http://www.w3.org/1999/xlink" width="148" height="45" viewBox="0 0 148 45">
  <defs>
    <clipPath id="clip-path">
      <rect id="Rectangle_15" data-name="Rectangle 15" width="148" height="45" transform="translate(42 35)" fill="#fff" stroke="#707070" stroke-width="1"/>
    </clipPath>
  </defs>
  <g id="Mask_Group_1" data-name="Mask Group 1" transform="translate(-42 -35)" clip-path="url(#clip-path)">
    <g id="Layer_2_1_" transform="translate(43.851 35)">
      <g id="Ebene_1" transform="translate(0 0)">
        <path id="Path_1" data-name="Path 1" d="M96.609,59.939v-.073a.342.342,0,0,1,.306-.127c.523-.018,1.027-.018,1.55,0a.394.394,0,0,1,.306.127v.073Z" transform="translate(-25.136 -15.224)" fill="#fff"/>
        <path id="Path_2" data-name="Path 2" d="M85.965,54.174q-1.082-.027-2.163,0c-.991-.054-1.983-.091-2.974-.163a51.3,51.3,0,0,1-7.805-1.2,52.732,52.732,0,0,1-23.4-12.275c-.631-.563-1.226-1.144-1.839-1.725a1.337,1.337,0,0,1-.342-.49.672.672,0,0,1,.126-.726.634.634,0,0,1,.721-.163,3.776,3.776,0,0,1,.469.236,69.855,69.855,0,0,0,20.946,8.716,75.863,75.863,0,0,0,7.517,1.362,68.672,68.672,0,0,0,10.924.49A57.482,57.482,0,0,0,94,47.746a70.39,70.39,0,0,0,13.375-3.069,62.809,62.809,0,0,0,6.706-2.651,1.5,1.5,0,0,1,1.082-.145,1.128,1.128,0,0,1,.811,1.362,1.267,1.267,0,0,1-.09.236,1.986,1.986,0,0,1-.595.69,40.09,40.09,0,0,1-6.67,4.267A52.565,52.565,0,0,1,94.51,53.248,61.466,61.466,0,0,1,85.965,54.174Z" transform="translate(-12.33 -9.532)" fill="#fff"/>
        <path id="Path_3" data-name="Path 3" d="M59.149,9.933c.451-.272.919-.563,1.406-.817a8.008,8.008,0,0,1,4.092-.908,3.791,3.791,0,0,1,2.686,1.108,3.874,3.874,0,0,1,1.009,2.524c.018.2.018.4.018.617v9.406c0,.817-.108.926-.919.926h-2.2a3.448,3.448,0,0,1-.433-.018.5.5,0,0,1-.433-.418,3.345,3.345,0,0,1-.036-.6V13.347a3.093,3.093,0,0,0-.108-1,1.351,1.351,0,0,0-1.226-1,6.323,6.323,0,0,0-3.1.6.3.3,0,0,0-.216.327v9.551a2.589,2.589,0,0,1-.036.527.433.433,0,0,1-.451.436h0c-.27.018-.541.018-.829.018H56.463c-.667,0-.811-.163-.811-.835V13.383a4.192,4.192,0,0,0-.09-.944,1.364,1.364,0,0,0-1.262-1.09,6.305,6.305,0,0,0-3.155.617.29.29,0,0,0-.2.345V21.99c0,.672-.144.817-.811.817H47.721c-.631,0-.793-.182-.793-.8V9.406a1.8,1.8,0,0,1,.054-.436.526.526,0,0,1,.5-.345H49.74a.652.652,0,0,1,.631.508c.09.254.144.49.234.763.18,0,.288-.127.415-.2a9.325,9.325,0,0,1,3.209-1.362,6.778,6.778,0,0,1,2.7,0,3.377,3.377,0,0,1,2.091,1.416.788.788,0,0,0,.108.127C59.113,9.9,59.131,9.9,59.149,9.933Z" transform="translate(-12.21 -2.097)" fill="#fff"/>
        <path id="Path_4" data-name="Path 4" d="M111.461,19.113c.108-.363.216-.708.324-1.071.829-2.815,1.658-5.611,2.488-8.425l.108-.327a.736.736,0,0,1,.721-.527h2.74c.685,0,.829.2.595.853L117.356,12.5c-1.208,3.16-2.415,6.337-3.623,9.5-.036.109-.09.218-.126.327a.878.878,0,0,1-.9.6q-1.19-.027-2.379,0a1.02,1.02,0,0,1-1.082-.744c-.451-1.2-.919-2.415-1.37-3.614-1.082-2.851-2.181-5.7-3.263-8.571a3.262,3.262,0,0,1-.234-.708c-.054-.363.072-.545.433-.545,1.027-.018,2.055,0,3.064,0,.433,0,.631.291.739.672.2.69.4,1.4.613,2.088.739,2.524,1.46,5.066,2.2,7.59C111.407,19.113,111.425,19.113,111.461,19.113Z" transform="translate(-27.154 -2.234)" fill="#fff"/>
        <path id="Path_5" data-name="Path 5" d="M26.1,10.715A.538.538,0,0,0,26.4,10.5a12.488,12.488,0,0,1,1.027-.926,4.772,4.772,0,0,1,3.281-1c.469.018.631.163.667.617.036.617.018,1.253.018,1.87a3.439,3.439,0,0,1-.036.744c-.072.327-.2.454-.523.49a5.025,5.025,0,0,1-.739-.018,8.578,8.578,0,0,0-3.515.508c-.252.091-.252.272-.252.472v8.716a4.134,4.134,0,0,1-.018.472.437.437,0,0,1-.433.418,2.9,2.9,0,0,1-.4.018H23.142a2.9,2.9,0,0,1-.4-.018.485.485,0,0,1-.433-.454,3.525,3.525,0,0,1-.018-.436V9.625c0-.835.09-.926.919-.926h1.73a.716.716,0,0,1,.811.617C25.881,9.77,25.99,10.224,26.1,10.715Z" transform="translate(-5.801 -2.189)" fill="#fff"/>
        <path id="Path_6" data-name="Path 6" d="M138.317,36.158a15.255,15.255,0,0,1,3.515.418,5.81,5.81,0,0,1,.937.345,1.224,1.224,0,0,1,.739,1,7.5,7.5,0,0,1,.054,1.562,20.126,20.126,0,0,1-2.776,8.77,12.094,12.094,0,0,1-2.091,2.6,1.486,1.486,0,0,1-.577.363.423.423,0,0,1-.577-.436,1.988,1.988,0,0,1,.126-.545c.631-1.707,1.244-3.4,1.73-5.157a18.14,18.14,0,0,0,.613-2.942,5.5,5.5,0,0,0,.018-1.09,1.416,1.416,0,0,0-1.009-1.326,6.946,6.946,0,0,0-1.73-.327,28.252,28.252,0,0,0-4.957.218l-2.181.272a.538.538,0,0,1-.577-.218.617.617,0,0,1,.054-.654,1.814,1.814,0,0,1,.541-.508,12.331,12.331,0,0,1,4.416-1.925A21.347,21.347,0,0,1,138.317,36.158Z" transform="translate(-33.695 -9.22)" fill="#fff"/>
        <path id="Path_7" data-name="Path 7" d="M129.788,15.853V22.39a.517.517,0,0,1-.559.545c-.973.018-1.929.018-2.9,0a.5.5,0,0,1-.559-.527,2.214,2.214,0,0,1-.018-.345V9.5c.018-.563.162-.726.721-.726h2.6c.559,0,.721.163.721.726v6.355Z" transform="translate(-32.718 -2.243)" fill="#fff"/>
        <path id="Path_8" data-name="Path 8" d="M36.932,15.806V9.36c.018-.436.18-.6.613-.617q1.406-.027,2.812,0c.415,0,.541.127.577.545a4.134,4.134,0,0,1,.018.472V21.853c0,.2-.018.4-.036.6a.45.45,0,0,1-.433.418,1.737,1.737,0,0,1-.306.018H37.671a1.182,1.182,0,0,1-.252-.018.523.523,0,0,1-.487-.472,3.525,3.525,0,0,1-.018-.436C36.932,19.946,36.932,17.876,36.932,15.806Z" transform="translate(-9.604 -2.233)" fill="#fff"/>
        <path id="Path_9" data-name="Path 9" d="M38.919.023a2.236,2.236,0,0,1,.847.127,2.061,2.061,0,0,1,1.388,2.288A2.022,2.022,0,0,1,39.442,4.29a3.374,3.374,0,0,1-1.208,0,2.03,2.03,0,0,1-1.712-2.27A2.1,2.1,0,0,1,38.919.023Z" transform="translate(-9.501 -0.014)" fill="#fff"/>
        <path id="Path_10" data-name="Path 10" d="M127.687.021A2.166,2.166,0,0,1,128.751.2a1.909,1.909,0,0,1,1.226,1.689,2.132,2.132,0,0,1-2.415,2.451,3.327,3.327,0,0,1-.595-.073,2.053,2.053,0,0,1-1.586-2.4A2.026,2.026,0,0,1,127.309.039,1.327,1.327,0,0,1,127.687.021Z" transform="translate(-32.619 -0.012)" fill="#fff"/>
        <path id="Path_11" data-name="Path 11" d="M13.826,14.179a8.318,8.318,0,0,0-.7-2.724A5.227,5.227,0,0,0,9.518,8.35a6.334,6.334,0,0,0-5.39,1.217,1.444,1.444,0,0,1-.379.272c-.036-.018-.072-.036-.072-.054-.054-.182-.09-.363-.144-.545-.144-.454-.324-.617-.811-.617-.541,0-1.1.018-1.64,0A1.25,1.25,0,0,0,0,8.985c0,6.355,0,12.729.018,19.066a1,1,0,0,0,1.009.436c.649-.018,1.3,0,1.947,0,1.136,0,1.136,0,1.136-1.126V22.186c0-.127-.054-.272.072-.381a6.031,6.031,0,0,0,3.136,1.253,5.263,5.263,0,0,0,4.236-1.326A6.726,6.726,0,0,0,13.429,18.7,11.3,11.3,0,0,0,13.826,14.179ZM9.518,17.937a2.8,2.8,0,0,1-.829,1.453,2.556,2.556,0,0,1-1.658.636A4.917,4.917,0,0,1,4.4,19.444a.515.515,0,0,1-.306-.508V15.649c0-1.09.018-2.179,0-3.269a.552.552,0,0,1,.361-.563,4.843,4.843,0,0,1,3.1-.472,2.2,2.2,0,0,1,1.712,1.307,5.1,5.1,0,0,1,.469,1.852A9.139,9.139,0,0,1,9.518,17.937Z" transform="translate(0 -2.094)" fill="#fff"/>
        <path id="Path_12" data-name="Path 12" d="M194.947,20.024Z" transform="translate(-50.723 -5.106)" fill="#fff"/>
        <path id="Path_13" data-name="Path 13" d="M190.071,14.565v.073a.263.263,0,0,1-.072-.272V14.22a.018.018,0,0,1,.018-.018H190V14.02h.036c0-.018-.018-.018-.018-.036a6.335,6.335,0,0,0-.2-1.017,6.085,6.085,0,0,0-4.6-4.594,8.794,8.794,0,0,0-3.443-.127,5.925,5.925,0,0,0-5.029,3.995,9.781,9.781,0,0,0,.018,6.864A5.761,5.761,0,0,0,181,22.918a8.865,8.865,0,0,0,3.389.182A6.22,6.22,0,0,0,190,17.252h-.018V17c-.018-.109-.036-.2.072-.272v.036a.138.138,0,0,1,.036-.073V14.6C190.089,14.583,190.071,14.583,190.071,14.565Zm-4.326,3.45a3.336,3.336,0,0,1-.5,1.053,2.33,2.33,0,0,1-1.712.981,3.256,3.256,0,0,1-1.027-.036,2.32,2.32,0,0,1-1.694-1.362,5.225,5.225,0,0,1-.487-1.8,10.011,10.011,0,0,1,.144-3.2,4.085,4.085,0,0,1,.487-1.2,2.347,2.347,0,0,1,1.839-1.126,3.256,3.256,0,0,1,1.027.036,2.325,2.325,0,0,1,1.64,1.289,5.391,5.391,0,0,1,.523,2.052,8.9,8.9,0,0,1,.018.981A6.684,6.684,0,0,1,185.745,18.015Z" transform="translate(-45.829 -2.081)" fill="#fff"/>
        <path id="Path_14" data-name="Path 14" d="M147.686.195h-2.506c-.685,0-.811.127-.811.817V6.9c0,.127.054.254-.036.381-.162-.018-.252-.127-.379-.2a5.954,5.954,0,0,0-5.822-.381,5.7,5.7,0,0,0-2.812,3.232,10.381,10.381,0,0,0-.631,4.195,8.7,8.7,0,0,0,.9,3.868,5.2,5.2,0,0,0,3.118,2.778,5.8,5.8,0,0,0,5.48-.944c.126-.073.2-.2.361-.236a2.6,2.6,0,0,1,.2.636.64.64,0,0,0,.631.49h.433c.649,0,1.28.018,1.911,0,.5,0,.649-.163.667-.69V.885C148.371.322,148.227.195,147.686.195Zm-3.3,13.365v3.3a.477.477,0,0,1-.288.508,4.416,4.416,0,0,1-2.83.545,2.469,2.469,0,0,1-1.929-1.344,5.063,5.063,0,0,1-.5-1.834,9.452,9.452,0,0,1,.216-3.414,4.185,4.185,0,0,1,.36-.89,2.325,2.325,0,0,1,1.893-1.217,5.407,5.407,0,0,1,2.776.49.5.5,0,0,1,.324.527c-.036,1.126-.018,2.215-.018,3.323Z" transform="translate(-35.043 -0.059)" fill="#fff"/>
        <path id="Path_15" data-name="Path 15" d="M83.292,16.88a11.913,11.913,0,0,0,4.092.054,6.566,6.566,0,0,0,2.253-.726A3.373,3.373,0,0,0,91.3,14.175a4.338,4.338,0,0,0-2.7-5.448A8.01,8.01,0,0,0,85,8.382a6.161,6.161,0,0,0-5.552,4.649,10.1,10.1,0,0,0-.036,5.665,5.654,5.654,0,0,0,4.615,4.358,11.542,11.542,0,0,0,6.255-.545.832.832,0,0,0,.613-.89c-.018-.436,0-.89,0-1.344,0-.545-.216-.708-.739-.581s-1.027.236-1.55.345a8.867,8.867,0,0,1-3.389.036,3.037,3.037,0,0,1-2.433-3.269A4.826,4.826,0,0,1,83.292,16.88ZM82.842,14.1a4.959,4.959,0,0,1,.342-1.253,2.685,2.685,0,0,1,2.83-1.707,2.924,2.924,0,0,1,.955.218A1.384,1.384,0,0,1,87.8,12.5a2.1,2.1,0,0,1-.054.944,1.611,1.611,0,0,1-1.37,1.053,3.617,3.617,0,0,1-1.172.091,13.985,13.985,0,0,1-2.127-.163C82.805,14.393,82.805,14.393,82.842,14.1Z" transform="translate(-20.562 -2.126)" fill="#fff"/>
        <path id="Path_16" data-name="Path 16" d="M164.332,17.071a7.345,7.345,0,0,0,3.028-.781,3.374,3.374,0,0,0,1.821-2.415,4.97,4.97,0,0,0-.018-2A4.2,4.2,0,0,0,166.207,8.7a7.923,7.923,0,0,0-2.686-.345,6.283,6.283,0,0,0-6.273,4.667,10.152,10.152,0,0,0,.072,6.083,5.556,5.556,0,0,0,4.128,3.886,9.711,9.711,0,0,0,2.7.272,11.386,11.386,0,0,0,3.876-.744.807.807,0,0,0,.649-.944V20.267c-.018-.527-.234-.708-.757-.581-.4.109-.775.2-1.172.291a9.053,9.053,0,0,1-3.7.127,2.832,2.832,0,0,1-2.379-2.179,7.488,7.488,0,0,1-.2-1.108.569.569,0,0,1,.252.036A14.12,14.12,0,0,0,164.332,17.071Zm-3.767-2.905a4.525,4.525,0,0,1,.721-1.979,2.7,2.7,0,0,1,2.632-1.035c.09,0,.162.036.252.036a1.623,1.623,0,0,1,1.334,2.2,1.59,1.59,0,0,1-1.442,1.126,4.575,4.575,0,0,1-1.118.091,17.378,17.378,0,0,1-2.181-.182c-.162-.018-.234-.091-.2-.254Z" transform="translate(-40.802 -2.136)" fill="#fff"/>
      </g>
    </g>
  </g>
</svg>
