<svg xmlns="http://www.w3.org/2000/svg" xmlns:xlink="http://www.w3.org/1999/xlink" width="28" height="19" viewBox="0 0 28 19">
  <defs>
    <clipPath id="clip-path">
      <rect id="Rectangle_18" data-name="Rectangle 18" width="28" height="19" transform="translate(0.5)" fill="#eaebeb"/>
    </clipPath>
  </defs>
  <g id="Mask_Group_3" data-name="Mask Group 3" transform="translate(-0.5)" clip-path="url(#clip-path)">
    <g id="global" transform="translate(4.413)">
      <path id="Path_20" data-name="Path 20" d="M0,0H19.121V19.121H0Z" fill="none"/>
      <path id="Path_21" data-name="Path 21" d="M10.134,2.167A7.967,7.967,0,1,0,18.1,10.134,7.97,7.97,0,0,0,10.134,2.167ZM3.76,10.134a6.4,6.4,0,0,1,.167-1.418l3.808,3.808v.8a1.6,1.6,0,0,0,1.593,1.593v1.538A6.383,6.383,0,0,1,3.76,10.134Zm11.066,4.3a1.588,1.588,0,0,0-1.514-1.115h-.8v-2.39a.8.8,0,0,0-.8-.8H6.939V8.54H8.532a.8.8,0,0,0,.8-.8V6.15h1.593a1.6,1.6,0,0,0,1.593-1.593V4.23a6.356,6.356,0,0,1,2.31,10.206Z" transform="translate(-0.573 -0.573)" fill="#eaebeb"/>
    </g>
  </g>
</svg>
